# xmcd
#
# Track frame offsets:
#  150
#  15840
#  29504
#  49093
#  64620
#  73958
#  86837
#  100459
#  115542
#  130605
#
# Disc length: 1972 seconds
#
# Revision: 0
# Processed by: cddbd v1.4PL0 Copyright (c) Steve Scherf et al.
# Submitted via: AltoMP3_Maker 3.0
#
DISCID=7f07b20a
DTITLE=Luis Y Julian - Cabron A La Griega
DYEAR=1900
DGENRE=
TTITLE0=Cabron A La Griega-crls
TTITLE1=Andas En Muy Malos Pasos-crls
TTITLE2=Una Aventura-crls
TTITLE3=Adios Puente Grande-crls
TTITLE4=El Porton-crls
TTITLE5=Se Me Ven Las Ganas-crls
TTITLE6=Te "Fuistes" Horcon "Deenmedio"-crls
TTITLE7=El Mejor De Mis Amigos-crls
TTITLE8=Preso Por Amor-crls
TTITLE9=El Pajarillo y La Carta-crls
EXTD=
EXTT0=
EXTT1=
EXTT2=
EXTT3=
EXTT4=
EXTT5=
EXTT6=
EXTT7=
EXTT8=
EXTT9=
PLAYORDER=
